<svg width="38" height="39" viewBox="0 0 38 39" fill="none" xmlns="http://www.w3.org/2000/svg">
<g opacity="0.999989">
<rect y="0.0898438" width="38" height="38" rx="19" fill="#0066CC"/>
<path d="M19 15.7988C18.7763 15.799 18.5618 15.888 18.4037 16.0463L13.4228 21.0273C13.3705 21.0795 13.329 21.1415 13.3007 21.2098C13.2724 21.2781 13.2578 21.3513 13.2578 21.4252C13.2578 21.4992 13.2724 21.5724 13.3007 21.6406C13.329 21.7089 13.3705 21.771 13.4228 21.8232L13.8222 22.2198C13.9276 22.3245 14.0701 22.3833 14.2187 22.3833C14.3673 22.3833 14.5099 22.3245 14.6153 22.2198L19 17.8351L23.3847 22.2198C23.4901 22.3245 23.6326 22.3833 23.7812 22.3833C23.9298 22.3833 24.0724 22.3245 24.1778 22.2198L24.5772 21.8232C24.6295 21.771 24.6709 21.7089 24.6993 21.6406C24.7276 21.5724 24.7421 21.4992 24.7421 21.4252C24.7421 21.3513 24.7276 21.2781 24.6993 21.2098C24.6709 21.1415 24.6295 21.0795 24.5772 21.0273L19.5962 16.0463C19.4381 15.888 19.2237 15.799 19 15.7988Z" fill="white"/>
</g>
</svg>
