<svg width="16" height="16" viewBox="0 0 16 16" fill="none" xmlns="http://www.w3.org/2000/svg">
<path d="M6.50373 11.3047C5.57663 11.3047 4.67035 11.0298 3.89949 10.5147C3.12864 9.99963 2.52783 9.26755 2.17304 8.41102C1.81825 7.55449 1.72543 6.61199 1.9063 5.7027C2.08716 4.79342 2.5336 3.95819 3.18916 3.30263C3.84472 2.64707 4.67995 2.20063 5.58924 2.01976C6.49853 1.83889 7.44103 1.93172 8.29755 2.2865C9.15408 2.64129 9.88617 3.2421 10.4012 4.01295C10.9163 4.78381 11.1912 5.69009 11.1912 6.61719C11.1912 7.23276 11.07 7.8423 10.8344 8.41102C10.5988 8.97973 10.2536 9.49648 9.81829 9.93175C9.38301 10.367 8.86627 10.7123 8.29755 10.9479C7.72884 11.1834 7.1193 11.3047 6.50373 11.3047ZM15.2694 14.2109L11.7069 10.6484C11.5729 10.5405 11.4096 10.4751 11.2381 10.4609C12.1125 9.36105 12.5914 7.99887 12.5975 6.59375C12.5962 5.21107 12.1247 3.86994 11.2604 2.79064C10.3961 1.71134 9.19054 0.958042 7.84159 0.654479C6.49264 0.350916 5.08055 0.515134 3.83726 1.12016C2.59398 1.72519 1.59341 2.73505 0.99991 3.98388C0.406407 5.23271 0.255255 6.64625 0.57128 7.99234C0.887305 9.33842 1.65172 10.537 2.73896 11.3912C3.82621 12.2455 5.17164 12.7046 6.55428 12.6931C7.93692 12.6816 9.27455 12.2003 10.3475 11.3281C10.3723 11.4969 10.4366 11.6575 10.535 11.7969L14.0975 15.3594C14.1397 15.4039 14.1906 15.4394 14.247 15.4636C14.3034 15.4879 14.3642 15.5004 14.4256 15.5004C14.487 15.5004 14.5478 15.4879 14.6042 15.4636C14.6606 15.4394 14.7115 15.4039 14.7537 15.3594L15.2459 14.8672C15.2942 14.828 15.3335 14.7789 15.3613 14.7232C15.389 14.6675 15.4045 14.6066 15.4067 14.5444C15.4089 14.4822 15.3978 14.4203 15.3741 14.3628C15.3504 14.3053 15.3147 14.2535 15.2694 14.2109Z" fill="#585858"/>
</svg>
